<svg enable-background="new 0 0 140 140" height="512" viewBox="0 0 140 140" width="512" xmlns="http://www.w3.org/2000/svg"><circle cx="70" cy="70" fill="#509fd7" r="64"/><path d="m133.7700195 64.7800293c.1398926 1.7199707.2299805 3.4599609.2299805 5.2199707 0 35.3500977-28.6500244 64-64 64-1.7700195 0-3.5100098-.0900879-5.25-.2299805l-24.3900146-24.3999023v-37.0600586l-5.7199707-36.6201172 5.7199707-.8999023v-4.1499023l23.2301025-.0102539v-1.3798829c0-3.5300293 2.8798828-6.3999023 6.4099121-6.3999023 1.9799805 0 3.75.8999023 4.9199219 2.3198242l3.6601562 3.6601562 14.6298828-2.2900391 4.1000977 4.1000977h2.3199463z" opacity=".1"/><path d="m40.35669 30.64263h59.278099v78.731789h-59.278099z" fill="#dad7dc" transform="matrix(.988 -.154 .154 .988 -9.962 11.636)"/><path d="m40.35669 30.64263h59.278099v78.731789h-59.278099z" fill="#e6e7e8"/><path d="m44.133526 34.642632h18.081532v21.804199h-18.081532z" fill="#4abaa4"/><path d="m44.133526 60.674763h51.724426v13.97381h-51.724426z" fill="#ba9a43"/><g fill="#dad7dc"><path d="m44.133526 78.876503h51.724426v1.73171h-51.724426z"/><path d="m44.133526 83.340324h51.724426v1.73171h-51.724426z"/><path d="m44.133526 87.804146h51.724426v1.73171h-51.724426z"/><path d="m44.133526 92.267967h51.724426v1.73171h-51.724426z"/><path d="m44.133526 96.731789h17.405754v1.73171h-17.405754z"/><path d="m44.133526 101.195618h17.405754v1.73171h-17.405754z"/><path d="m69.995735 41.323654h25.862213v1.73171h-25.862213z"/><path d="m69.995735 45.787476h25.862213v1.73171h-25.862213z"/><path d="m69.995735 50.251297h25.862213v1.73171h-25.862213z"/><path d="m69.995735 54.715118h25.862213v1.73171h-25.862213z"/></g><path d="m69.9955826 22.8525372c-3.5297852 0-6.4013634 2.871582-6.4013634 6.4013672v1.3779297h1.4999962v-1.3779297c0-2.7026367 2.1987305-4.9013672 4.9013672-4.9013672 2.703125 0 4.9018555 2.1987305 4.9018555 4.9013672v10.4228496c0 1.7436523-1.4189453 3.1625977-3.1625977 3.1625977s-3.1621094-1.4189453-3.1621094-3.1625977v-10.4228497c0-.3994141.1704102-.7836914.4682617-1.0537109.3012695-.2734375.6928711-.4047852 1.0991211-.3623047.7167969.0698242 1.2788086.734375 1.2788086 1.5126953v8.4194317c0 .4140625.3359375.75.75.75s.75-.3359375.75-.75v-8.4194317c0-1.5410156-1.1567383-2.8613281-2.6333008-3.0058594-.8232422-.0820312-1.6435547.1914062-2.2529297.7446289-.6098633.5537109-.9599609 1.3427734-.9599609 2.1645508v10.4228497c0 2.5708008 2.0913086 4.6625977 4.6621094 4.6625977s4.6625977-2.0917969 4.6625977-4.6625977v-10.4228497c-.0000001-3.5297851-2.8720704-6.4013671-6.4018555-6.4013671z" fill="#32796b"/><g fill="#41a28d"><circle cx="53.174" cy="41.207" r="4.047"/><path d="m53.174324 46.3975143c-4.1599121 0-7.5322266 3.3720703-7.5322266 7.5322266h15.0643921c.0000001-4.1601562-3.3722534-7.5322266-7.5321655-7.5322266z"/></g></svg>